<?xml version="1.0" encoding="UTF-8"?>
<svg class="css-1j8o68f" viewBox="0 0 73 70.467" xmlns="http://www.w3.org/2000/svg">
<g transform="matrix(.69467 0 0 .69467 25.436 10.725)" fill="#fc4c69">
<g xmlns="http://www.w3.org/2000/svg">
<path d="m60-14h-77.7c-3.9 0-7.4 3.2-7.4 7v0.1c0 0.2 0.3 0.6 0.3 0.8l7.8 70.3c0.1 1 0.5 2 1 2.8 0.7 1.4 1.8 2.4 3.2 3.1l31 15.2c1 0.5 2.1 0.7 3.1 0.7s2.1-0.2 3.1-0.7l30.9-15.2c2.5-1.3 4-3.9 3.9-6.7l7.6-69.7c0-0.2 0.1-0.6 0.1-0.8v-0.1c0.3-3.6-3-6.8-6.9-6.8zm-10.5 75.9-28 13.8-28.5-14-7.4-65.7h71.1l-7.2 65.9z"/>
<path d="m-3.1 36.2 12.7 12.7c0.9 0.9 2.2 1.4 3.5 1.4s2.6-0.5 3.5-1.4c1.9-1.9 1.9-5 0-7l-9.3-9.3 9.4-9.6c0.9-0.9 1.4-2.2 1.4-3.5s-0.5-2.6-1.4-3.5-2.2-1.4-3.5-1.4-2.6 0.5-3.5 1.4l-13 13c-0.9 0.9-1.5 2.2-1.5 3.5v0.4 0.4c0 1 0.7 1.9 1.4 2.6 0 0.2 0.2 0.3 0.3 0.3z"/>
<path d="m36.8 32.6-9.3 9.3c-1.9 1.9-1.9 5 0 7 0.9 0.9 2.2 1.4 3.5 1.4s2.6-0.5 3.5-1.4l12.8-12.9c1-1 1.4-2.2 1.3-3.5v-0.5l-0.1-0.1v-0.2c-0.2-1-0.6-1.8-1.2-2.5-0.1-0.1-0.1-0.2-0.3-0.3l-12.6-12.6c-0.9-0.9-2.2-1.4-3.5-1.4s-2.6 0.5-3.5 1.4-1.4 2.2-1.4 3.5 0.5 2.6 1.4 3.5l9.4 9.3z"/>
</g>
</g>
</svg>
