<?xml version="1.0" encoding="UTF-8"?>
<svg class="css-1j8o68f" viewBox="0 0 375.08 70.467" xmlns="http://www.w3.org/2000/svg">
<g transform="matrix(.69467 0 0 .69467 25.436 10.725)" fill="#fc4c69">
<g xmlns="http://www.w3.org/2000/svg">
<path d="m60-14h-77.7c-3.9 0-7.4 3.2-7.4 7v0.1c0 0.2 0.3 0.6 0.3 0.8l7.8 70.3c0.1 1 0.5 2 1 2.8 0.7 1.4 1.8 2.4 3.2 3.1l31 15.2c1 0.5 2.1 0.7 3.1 0.7s2.1-0.2 3.1-0.7l30.9-15.2c2.5-1.3 4-3.9 3.9-6.7l7.6-69.7c0-0.2 0.1-0.6 0.1-0.8v-0.1c0.3-3.6-3-6.8-6.9-6.8zm-10.5 75.9-28 13.8-28.5-14-7.4-65.7h71.1l-7.2 65.9z"/>
<path d="m-3.1 36.2 12.7 12.7c0.9 0.9 2.2 1.4 3.5 1.4s2.6-0.5 3.5-1.4c1.9-1.9 1.9-5 0-7l-9.3-9.3 9.4-9.6c0.9-0.9 1.4-2.2 1.4-3.5s-0.5-2.6-1.4-3.5-2.2-1.4-3.5-1.4-2.6 0.5-3.5 1.4l-13 13c-0.9 0.9-1.5 2.2-1.5 3.5v0.4 0.4c0 1 0.7 1.9 1.4 2.6 0 0.2 0.2 0.3 0.3 0.3z"/>
<path d="m36.8 32.6-9.3 9.3c-1.9 1.9-1.9 5 0 7 0.9 0.9 2.2 1.4 3.5 1.4s2.6-0.5 3.5-1.4l12.8-12.9c1-1 1.4-2.2 1.3-3.5v-0.5l-0.1-0.1v-0.2c-0.2-1-0.6-1.8-1.2-2.5-0.1-0.1-0.1-0.2-0.3-0.3l-12.6-12.6c-0.9-0.9-2.2-1.4-3.5-1.4s-2.6 0.5-3.5 1.4-1.4 2.2-1.4 3.5 0.5 2.6 1.4 3.5l9.4 9.3z"/>
</g>
</g>
<g transform="matrix(3.1836 0 0 3.1836 88.109 -12.128)" fill="#1c1c1c">
<path d="m7.08 17.54 0.64 2.14c-0.8 0.32-1.52 0.48-2.36 0.48-2.32 0-3.38-1.44-3.38-3.62v-4.34h-1.7v-2.32h1.7v-3.28h2.66v3.28h2.96v2.32h-2.96v4.34c0 0.82 0.4 1.28 1.24 1.28 0.46 0 0.8-0.08 1.2-0.28zm3.8-9.08c-0.88 0-1.58-0.68-1.58-1.56 0-0.84 0.7-1.52 1.58-1.52s1.58 0.68 1.58 1.52c0 0.88-0.7 1.56-1.58 1.56zm-1.36 11.54v-10.12h2.66v10.12h-2.66zm11.2-10.4c2.64 0 3.98 1.78 3.98 4.48v5.92h-2.64v-5.42c0-1.54-0.7-2.52-2.16-2.52-1.48 0-2.44 1.16-2.44 2.94v5h-2.64v-10.12h2.64v1.28c0.7-0.9 1.8-1.56 3.26-1.56zm13.98 0.28h2.82l-6.08 14.32h-2.72l1.84-4.42-4.58-9.9h2.9l3 6.84zm10.12-0.28c2.8 0 4.98 2.26 4.98 5.34 0 3.06-2.18 5.34-4.98 5.34-1.44 0-2.54-0.6-3.28-1.52v5.44h-2.64v-14.32h2.64v1.22c0.74-0.92 1.84-1.5 3.28-1.5zm-0.46 8.32c1.66 0 2.84-1.24 2.84-3 0-1.74-1.18-2.96-2.84-2.96-1.6 0-2.88 1.22-2.88 2.96 0 1.76 1.28 3 2.88 3zm10.08-6.54c0.6-1.18 1.76-1.86 3.34-1.64v2.48c-2.16-0.34-3.34 0.66-3.34 3.38v4.4h-2.64v-10.12h2.64v1.5zm9.94 8.9c-3.24 0-5.5-2.14-5.5-5.34 0-3.02 2.12-5.34 5.3-5.34 3.32 0 5.22 2.3 5.22 5.2 0 0.32 0 0.62-0.06 0.94h-7.86c0.18 1.3 1.1 2.3 2.94 2.3 1.28 0 2.06-0.58 2.46-1.34l2.38 0.7c-0.58 1.32-2.22 2.88-4.88 2.88zm-2.9-6.2h5.34c-0.12-1.24-1.08-2.24-2.66-2.24-1.54 0-2.54 1.08-2.68 2.24zm13.9 6.2c-2.5 0-4.42-1.48-4.92-3.12l2.38-0.7c0.34 0.96 1.3 1.68 2.64 1.68 1.02 0 1.68-0.48 1.68-1.04 0-0.5-0.38-0.78-1.12-1l-2.58-0.76c-1.44-0.42-2.5-1.26-2.5-2.7 0-1.7 1.84-3.04 4.06-3.04 2.18 0 3.84 1.04 4.48 2.56l-2.34 0.68c-0.36-0.64-1.1-1.18-2.16-1.18-0.82 0-1.44 0.44-1.44 0.92 0 0.4 0.28 0.64 0.84 0.8l2.52 0.72c1.52 0.44 2.84 1.06 2.84 2.88 0 1.9-1.8 3.3-4.38 3.3zm10.38 0c-2.5 0-4.42-1.48-4.92-3.12l2.38-0.7c0.34 0.96 1.3 1.68 2.64 1.68 1.02 0 1.68-0.48 1.68-1.04 0-0.5-0.38-0.78-1.12-1l-2.58-0.76c-1.44-0.42-2.5-1.26-2.5-2.7 0-1.7 1.84-3.04 4.06-3.04 2.18 0 3.84 1.04 4.48 2.56l-2.34 0.68c-0.36-0.64-1.1-1.18-2.16-1.18-0.82 0-1.44 0.44-1.44 0.92 0 0.4 0.28 0.64 0.84 0.8l2.52 0.72c1.52 0.44 2.84 1.06 2.84 2.88 0 1.9-1.8 3.3-4.38 3.3z"/>
</g>
</svg>
